<svg height="512" viewBox="0 0 40 60" width="512" xmlns="http://www.w3.org/2000/svg"><g id="Page-1" fill="none" fill-rule="evenodd"><g id="053---Explosion" fill-rule="nonzero" transform="translate(-1)"><path id="Shape" d="m17.25 7.88c-.5628217-1.13561447-1.4278511-2.09406704-2.5-2.77" fill="#02a9f4"/><path id="Shape" d="m9.18 22.34c1.8311762-.6745026 3.1394675-2.3060189 3.4-4.24" fill="#02a9f4"/><path id="Shape" d="m40 17.34c.0050471 1.4152541-.5528717 2.7744322-1.5507961 3.777984-.9979245 1.0035519-2.3539438 1.5691047-3.7692039 1.572016-.6366282.0028113-1.2679362-.1159833-1.86-.35-1.0464437 1.2201173-2.454629 2.0748368-4.02 2.44h-.01c-.5602927.1328827-1.1341652.2000023-1.71.2-2.3952289-.0066055-4.6476492-1.1402249-6.08-3.06-1.1846703 1.6485697-2.9903373 2.7428039-5 3.03-.3585235.0402431-.7197953.0502784-1.08.03-.5433851-.0320442-1.0824846-.1157553-1.61-.25-1.6037196-.3163448-3.0566561-1.1571482-4.13-2.39-.59206381.2340167-1.22337178.3528113-1.86.35-2.38567656-.0175758-4.47245193-1.6101062-5.11898478-3.9065724s.30288745-4.7437883 2.32898478-6.0034276c-.16972064-.5984679-.25388858-1.2179439-.25-1.84-.00584326-1.81954857.71164376-3.56683591 1.99450899-4.85720327 1.28286523-1.29036737 3.0259393-2.01803037 4.84549101-2.02279673 1.2854381-.00379742 2.5450842.36056301 3.63 1.05 1.0763854-2.49458616 3.5330963-4.11019652 6.25-4.11019652s5.1736146 1.61561036 6.25 4.11019652c1.0849158-.68943699 2.3445619-1.05379742 3.63-1.05 1.8195517.00476636 3.5626258.73242936 4.845491 2.02279673 1.2828652 1.29036736 2.0003523 3.0376547 1.994509 4.85720327.0038886.6220561-.0802794 1.2415321-.25 1.84 1.5774812.9779935 2.5350887 2.7039579 2.53 4.56z" fill="#ffdc00"/><g fill="#fec108"><path id="Shape" d="m24.25 5.11c.7585494-.47907624 1.6056623-.80078192 2.491-.946-1.5173003-2.45225533-4.4373029-3.6535656-7.241-2.979 2.1180262.477274 3.8820403 1.93490666 4.75 3.925z"/><path id="Shape" d="m37.47 12.78c.1697206-.5984679.2538886-1.2179439.25-1.84.0308479-2.08547708-.9003059-4.06899518-2.5244616-5.3775381-1.6241557-1.30854293-3.7603788-1.79633624-5.7915384-1.3224619 3.1156336.72350966 5.3197547 3.50146521 5.316 6.7.0038886.6220561-.0802794 1.2415321-.25 1.84 1.7884673 1.1081156 2.7606821 3.1621968 2.4838481 5.2478377-.276834 2.085641-1.7512339 3.814975-3.7668481 4.4181623.4822888.1570884.9857941.2393759 1.493.244 2.3856766-.0175758 4.4724519-1.6101062 5.1189848-3.9065724.6465328-2.2964662-.3028875-4.7437883-2.3289848-6.0034276z"/><path id="Shape" d="m31.68 22.69c-.6366282.0028113-1.2679362-.1159833-1.86-.35-1.0464437 1.2201173-2.454629 2.0748368-4.02 2.44h-.01c-.07.016-.142.023-.213.038.141.028.28.062.423.082.3576482.0522369.7185587.078971 1.08.08.5758348.0000023 1.1497073-.0671173 1.71-.2h.01c1.4395543-.3418866 2.7465739-1.1000831 3.758-2.18-.289648.0544096-.583337.0845144-.878.09z"/></g><path id="Shape" d="m39 41c.005201 2.3071831-.4397778 4.5932188-1.31 6.73-.46-1.4-1.18-2.76-1.65-4.07-.2617856-1.0633187-.9635507-1.9650687-1.93-2.48-.7897723-.2591548-1.6471196-.2200227-2.41.11-1.2095186.5042924-2.5289873.686882-3.83.53-1.29-.2-2.64-.5-3.78.31-1.3024884 1.0340293-1.749344 2.8132524-1.09 4.34.3616147 1.0347326 1.141967 1.8695281 2.15 2.3 1.14.48 2.57.33 3.6 1.07 1.64 1.19 3.12 2.94 4.99 3.88-1.0985425 1.1033832-2.3395099 2.0551279-3.69 2.83-1.62-1.51-5.06-2.55-9.03-2.55-3.99 0-7.44 1.05-9.05 2.57-1.0301077-.5993363-1.99818605-1.2994345-2.89-2.09 0-.25.47-.79.6-1 .29-.47.58-.94.85-1.43.73-1.31.33-2.76.1-4.15-.3264753-1.5244212-.3434782-3.0988838-.05-4.63.2395782-1.0386897-.0193011-2.1296811-.7-2.95-.39-.47-.94-.75-1.33-1.21-.38015582-.464022-.6808866-.9877666-.89-1.55-.39513232-1.0889994-.58500559-2.2418014-.56-3.4.02679933-.5665429-.01686822-1.134221-.13-1.69-.06-.27-.46-1.48-.82-1.48l-.06-.06c1.80166165-2.6815965 4.2969072-4.8243281 7.22-6.2.5275154.1342447 1.0666149.2179558 1.61.25.3602047.0202784.7214765.0102431 1.08-.03v9.05c0 4-3 4-3 4h16s-3 0-3-4v-9.1c.3576482.0522369.7185587.078971 1.08.08.5758348.0000023 1.1497073-.0671173 1.71-.2h.01c2.3400604 1.125941 4.4077029 2.7466179 6.06 4.75-.43.72-.61 1.56-.99 2.3-.81 1.55-1.68 3.36-.2 4.84.2191412.2193879.4724335.4017584.75.54 1.49.75 2.96 1.53 4.5 2.16.0568292.5414328.083537 1.0856045.08 1.63z" fill="#02a9f4"/><path id="Shape" d="m38.92 39.37c-1.54-.63-3.01-1.41-4.5-2.16-.2775665-.1382416-.5308588-.3206121-.75-.54-1.48-1.48-.61-3.29.2-4.84.38-.74.56-1.58.99-2.3-1.6522971-2.0033821-3.7199396-3.624059-6.06-4.75h-.01c-.5602927.1328827-1.1341652.2000023-1.71.2-.3543822-.0013978-.7082373-.0274607-1.059-.078 2.2490954 1.1165185 4.238425 2.693264 5.839 4.628-.43.72-.61 1.56-.99 2.3-.81 1.55-1.68 3.36-.2 4.84.2191412.2193879.4724335.4017584.75.54 1.49.75 2.96 1.53 4.5 2.16.0568292.5414328.083537 1.0856045.08 1.63-.0048464.7312976-.0539361 1.461632-.147 2.187.066.157.129.315.187.473.47 1.31 1.19 2.67 1.65 4.07.8702222-2.1367812 1.315201-4.4228169 1.31-6.73.003537-.5443955-.0231708-1.0885672-.08-1.63z" fill="#0377bc"/><path id="Shape" d="m10.53 52.05c-.27.49-.56.96-.85 1.43-.13.21-.6.75-.6 1-6.77745387-5.9809252-8.0577873-16.0651567-2.99-23.55l.06.06c.36 0 .76 1.21.82 1.48.11313178.555779.15679933 1.1234571.13 1.69-.02500559 1.1581986.16486768 2.3110006.56 3.4.2091134.5622334.50984418 1.085978.89 1.55.39.46.94.74 1.33 1.21.6806989.8203189.9395782 1.9113103.7 2.95-.2934782 1.5311162-.2764753 3.1055788.05 4.63.23 1.39.63 2.84-.1 4.15z" fill="#60a917"/><path id="Shape" d="m30.05 56.55c-5.5839981 3.2595647-12.4888041 3.2672028-18.08.02 1.61-1.52 5.06-2.57 9.05-2.57 3.97 0 7.41 1.04 9.03 2.55z" fill="#f5f5f5"/><path id="Shape" d="m21.02 54c-.51 0-1.011.018-1.5.051 3.323.225 6.119 1.183 7.531 2.5-2.3063029 1.3503874-4.8871941 2.1638586-7.551 2.38.5.041.993.069 1.5.069 3.181258.0056451 6.3060474-.8402924 9.05-2.45-1.62-1.51-5.06-2.55-9.03-2.55z" fill="#cfd8dc"/><path id="Shape" d="m37.69 47.73c-.8992122 2.2426299-2.2428285 4.2801646-3.95 5.99-1.87-.94-3.35-2.69-4.99-3.88-1.03-.74-2.46-.59-3.6-1.07-1.008033-.4304719-1.7883853-1.2652674-2.15-2.3-.659344-1.5267476-.2124884-3.3059707 1.09-4.34 1.14-.81 2.49-.51 3.78-.31 1.3010127.156882 2.6204814-.0257076 3.83-.53.7628804-.3300227 1.6202277-.3691548 2.41-.11.9664493.5149313 1.6682144 1.4166813 1.93 2.48.47 1.31 1.19 2.67 1.65 4.07z" fill="#60a917"/><path id="Shape" d="m24.87 41.82c.7757839.118426 1.5672155.0844589 2.33-.1-.8142607-.1803125-1.6609291-.1514137-2.461.084z" fill="#549414"/><path id="Shape" d="m36.04 43.66c-.2617856-1.0633187-.9635507-1.9650687-1.93-2.48-.7897723-.2591548-1.6471196-.2200227-2.41.11-.08.027-.154.047-.232.073.7666792.5690906 1.3202239 1.3789843 1.572 2.3.47 1.31 1.19 2.67 1.65 4.07-.6883917 1.7165557-1.6405201 3.3151326-2.822 4.738.5780573.4813863 1.2055715.9000644 1.872 1.249 1.7071715-1.7098354 3.0507878-3.7473701 3.95-5.99-.46-1.4-1.18-2.76-1.65-4.07z" fill="#549414"/><path id="Shape" d="m38.92 39.37c-1.54-.63-3.01-1.41-4.5-2.16-.2775665-.1382416-.5308588-.3206121-.75-.54-1.48-1.48-.61-3.29.2-4.84.38-.74.56-1.58.99-2.3 2.3269094 2.7881466 3.7438157 6.2222249 4.06 9.84z" fill="#60a917"/><path id="Shape" d="m35.718 37.864c1.054.534 2.11 1.059 3.2 1.506-.3161843-3.6177751-1.7330906-7.0518534-4.06-9.84-.43.72-.61 1.56-.99 2.3-.062.119-.123.242-.185.363.9964416 1.760602 1.6846811 3.6785412 2.035 5.671z" fill="#549414"/><path id="Shape" d="m29 38h-16s3 0 3-4v-9.05c2.0096627-.2871961 3.8153297-1.3814303 5-3.03 1.2038871 1.6189157 3.0032743 2.6913505 5 2.98v9.1c0 4 3 4 3 4z" fill="#ff9801"/><path id="Shape" d="m26 34v-9.1c-1.9967257-.2886495-3.7961129-1.3610843-5-2.98-.4281305.5685323-.9271742 1.0800101-1.485 1.522 1.0188154.7743884 2.218268 1.2761967 3.485 1.458v9.1c0 4 3 4 3 4h3s-3 0-3-4z" fill="#f57c00"/><path id="Shape" d="m33.126 23.466c.5064084.1399908 1.0286505.2145968 1.554.222 2.6989895-.0146536 5.0947902-1.7312525 5.97652-4.2821957.8817298-2.5509433.057335-5.3805981-2.05652-7.0588043.4131632-2.2924144-.2080139-4.65022702-1.697044-6.44149941-1.4890301-1.79127238-3.6936413-2.83282449-6.022956-2.84550059-1.1079434-.00068422-2.2032972.23488675-3.213.691-1.4144452-2.32923004-3.9419371-3.75140629-6.667-3.75140629s-5.2525548 1.42217625-6.667 3.75140629c-2.4322425-1.09512996-5.25452576-.87777327-7.49039885.57686921-2.23587309 1.45464249-3.5782141 3.94675953-3.56260115 6.61413079-.00004513.4694552.04178731.9379786.125 1.4-2.11731721 1.6765974-2.94485444 4.5075825-2.06391742 7.0606123.88093703 2.5530298 3.27821161 4.2712758 5.97891742 4.2853877.51140827-.0071319 1.01995732-.0776704 1.514-.21.60725069.5931092 1.3096561 1.0801959 2.078 1.441-7.17418 4.4965993-10.5072892 13.1976754-8.17335677 21.3365342 2.33393243 8.1388589 9.77163117 13.751254 18.23851587 13.7625577s15.9195425-5.5812121 18.2751981-13.7138101c2.3556556-8.1325981-.9542091-16.8425428-8.1163572-21.3582818.7315226-.3943331 1.40186-.8928755 1.99-1.48zm-30.126-6.13c-.00805632-1.5101876.7714885-2.9154147 2.057-3.708.37979846-.2349739.55774343-.6933046.436-1.123-.14249239-.5087355-.21416717-1.0346871-.213-1.563-.00830659-3.2355904 2.60443315-5.86712039 5.84-5.882 1.0949042-.00224818 2.1677854.30751026 3.093.893.9180838.57624234 1.6574076 1.39694371 2.135 2.37.2432814.49705625.8434437.70278139 1.3405.45949996.4970562-.24328142.7027814-.84344369.4595-1.34049996-.5059844-1.0216194-1.2287964-1.92052728-2.118-2.634 1.0489831-1.74372492 2.9350695-2.81016723 4.97-2.81016723s3.9210169 1.06644231 4.97 2.81016723c-.8877308.71351692-1.6091619 1.61206377-2.114 2.633-.2432814.49705627-.0375562 1.09721852.4595 1.34049995.4970563.24328142 1.0972185.03755629 1.3405-.45949995.4783772-.97430976 1.2191614-1.79578716 2.139-2.372.9230528-.58338137 1.9930495-.89206761 3.085-.89 3.2355668.01487961 5.8483066 2.6464096 5.84 5.882.0011672.5283129-.0705076 1.0542645-.213 1.563-.1217434.4296954.0562015.8880261.436 1.123 1.6463105 1.0242297 2.4182025 3.0127599 1.894082 4.8794903s-2.2182489 3.162878-4.157082 3.1805097c-.5176714.0004379-1.0309633-.0948296-1.514-.281-1.4827702-.5526688-2.5414081-1.8760623-2.755-3.444-.0387679-.3627198-.2719702-.6755522-.6085112-.8162959-.336541-.1407436-.7230201-.0870659-1.0084674.140065-.2854474.2271309-.4245695.591675-.3630214.9512309.2446766 1.7619906 1.2228604 3.3384176 2.693 4.34-1.3925594 1.0981454-3.1710918 1.5842738-4.928623 1.3471466-1.7575311-.2371272-3.3436375-1.1772149-4.395377-2.6051466-.1967934-.2391708-.4902738-.3777478-.8-.3777478s-.6032066.138577-.8.3777478c-1.1783046 1.7097043-3.1381057 2.7114055-5.214 2.665-1.47297-.0925686-2.8947033-.5757991-4.119-1.4 1.4749083-1.000425 2.4561918-2.5795645 2.7-4.345.0615481-.3595559-.077574-.7241-.3630214-.9512309-.2854473-.2271309-.6719264-.2808086-1.0084674-.140065-.336541.1407437-.5697433.4535761-.6085112.8162959-.2152758 1.5712947-1.2779951 2.8965229-2.765 3.448-.47880904.1834439-.98725285.2773365-1.5.277-2.39512623-.0104725-4.32919565-1.9588617-4.322-4.354zm24 12.478c1.582.523 2 1.084 2 1.186s-.419.664-2 1.186zm-2 2.853c-2.6498527.4234957-5.3501473.4234957-8 0v-6.88c1.5299281-.3835074 2.9194934-1.1935959 4.007-2.336 1.1032084 1.0993593 2.4827403 1.8805067 3.993 2.261zm-12-1.667c0-.1.418-.663 2-1.186v2.372c-1.582-.523-2-1.086-2-1.186zm-9 10c.00342428-2.8050917.70263813-5.5655261 2.035-8.034.05121182.3958405.07293831.7949394.065 1.194-.03241222 1.2832671.17829428 2.5610782.621 3.766.25293456.6589825.60941765 1.2733757 1.056 1.82.24378633.279528.51665958.5322877.814.754.18558649.1366277.35800238.2902955.515.459.48017274.5786895.66485348 1.3473307.5 2.081-.32768946 1.6606424-.317827 3.3702488.029 5.027l.093.53c.3109852.9705544.283842 2.0178574-.077 2.971-.214.387-.445.761-.675 1.137l-.113.183c-3.11886057-3.1705488-4.86558809-7.4405666-4.863-11.888zm9.924 15.438c2.2257826-1.010927 4.6522524-1.5026496 7.096-1.438 2.4374237-.063237 4.857649.4249101 7.08 1.428-4.4915076 2.0925049-9.6775439 2.0961642-14.172.01zm19.611-4c-.8122479-.5533453-1.5811412-1.1677913-2.3-1.838-.607-.539-1.236-1.1-1.9-1.577-.7526056-.4768113-1.6057-.7722448-2.492-.863-.4402368-.0576178-.8730377-.1622142-1.291-.312-.756661-.3238662-1.341858-.9515372-1.612-1.729-.4963164-1.1037413-.1975775-2.4029081.731-3.179.8556898-.4152572 1.8392997-.4815962 2.743-.185l.3.049c1.4556972.1803081 2.9333166-.0152389 4.292-.568.5403465-.2483778 1.1513923-.2965809 1.724-.136.564.232.961.783 1.369 1.894.223.622.5 1.254.767 1.865s.527 1.229.749 1.846c-.7551385 1.740109-1.7961855 3.3415639-3.08 4.738zm1.217-20.151c.1260074-.2472481.2381803-.5013063.336-.761 1.2585201 1.8701733 2.1346691 3.9708238 2.578 6.181-.642-.307-1.278-.625-1.9-.942l-.9-.455c-.1816452-.0894789-.3472184-.2084213-.49-.352-.861-.858-.565-1.865.376-3.666zm-1.09-2.6c-.108.25-.2.5-.294.744-.1106284.3182747-.2405354.6295174-.389.932-.723 1.383-2.069 3.958-.016 6.012.2953561.294388.6360154.5395007 1.009.726l.886.449c1 .509 2.042 1.021 3.107 1.484.019.32.035.64.035.963-.0035095 1.265238-.1487486 2.5261007-.433 3.759-.211-.485-.417-.966-.588-1.443-.3549342-1.3298815-1.2619344-2.4443417-2.492-3.062-1.0086079-.3553678-2.1131758-.3240123-3.1.088-1.0589558.4517786-2.2171349.6206294-3.361.49l-.294-.047c-1.4183563-.4085831-2.9422079-.2177402-4.216.528-1.685983 1.2847468-2.2844712 3.5501876-1.453 5.5.4537428 1.2979405 1.4341872 2.3441109 2.7 2.881.5598678.2149285 1.1427551.3642577 1.737.445.5846861.051491 1.1518169.2263336 1.664.513.579.421 1.144.922 1.742 1.453.6888956.6304779 1.4137795 1.2204686 2.171 1.767-.6190056.5325849-1.2753504 1.0201649-1.964 1.459-2-1.446-5.375-2.328-9.093-2.328-3.733 0-7.114.887-9.109 2.342-.5351578-.3379753-1.0512744-.7051992-1.546-1.1.066-.091.132-.182.168-.241l.153-.249c.246-.4.492-.8.72-1.214.6161884-1.350024.7227559-2.8774915.3-4.3l-.089-.5c-.2969532-1.3932681-.3156446-2.8314852-.055-4.232.3152347-1.3499958-.0241978-2.7696092-.916-3.831-.2402276-.2737961-.5083432-.5218031-.8-.74-.18772155-.1377393-.36154617-.2934781-.519-.465-.31025792-.3822605-.55737914-.8116842-.732-1.272-.35136612-.9734574-.51558145-2.0045533-.484-3.039.02370167-.646132-.03035274-1.2927705-.161-1.926-.1131957-.4892159-.2982017-.9589762-.549-1.394 1.5947569-2.13993 3.6720694-3.8732508 6.063-5.059.4614439.0991646.9292478.1659937 1.4.2h.144v1.742c-2.579.716-4 1.86-4 3.272s1.415 2.552 3.99 3.27c-.115 2.541-1.687 2.727-1.998 2.736-.5522847 0-1 .4477153-1 1s.4477153 1 1 1c1.3 0 3.683-.921 3.971-4.3 1.3333157.2032063 2.6802927.3035024 4.029.3 1.3487214.0038954 2.6957286-.0964029 4.029-.3.288 3.379 2.671 4.3 3.971 4.3.5522847 0 1-.4477153 1-1s-.4477153-1-1-1c-.079 0-1.873-.04-1.989-2.731 2.572-.716 3.989-1.859 3.989-3.269s-1.421-2.556-4-3.272v-1.749h.08c.5256669-.0031886 1.0499077-.055077 1.566-.155 1.9008513.960794 3.6027769 2.2725253 5.016 3.866z" fill="#000"/><path id="Shape" d="m9.28 10.942c-.01055607-1.02738375.8126397-1.86936981 1.84-1.882.3416612-.00193899.6765409.09532898.964.28.2889915.18005031.5217825.4374368.672.743.1570182.321539.4736481.5348851.8306182.5596729.3569701.0247877.7000481-.1427487.9-.4395.1999518-.29675132.2264-.67763387.0693818-.9991729-.6434422-1.31081503-1.9757772-2.14216731-3.436-2.144-2.13145873.0137664-3.84941976 1.75051763-3.84 3.882 0 .5522847.44771525 1 1 1s1-.4477153 1-1z" fill="#000"/></g></g></svg>