<svg id="Capa_1" enable-background="new 0 0 512 512" height="512" viewBox="0 0 512 512" width="512" xmlns="http://www.w3.org/2000/svg"><path d="m123.5 425.333v-88.931c0-8.284-6.716-15-15-15s-15 6.716-15 15v88.931z" fill="#a1ccff"/><path d="m175.286 415.293h-133.572c-8.284 0-15 6.716-15 15s6.716 15 15 15h133.572c8.284 0 15-6.716 15-15s-6.716-15-15-15z" fill="#4a5fb3"/><path d="m175.286 415.293h-66.786v30h66.786c8.284 0 15-6.716 15-15s-6.716-15-15-15z" fill="#28326b"/><path d="m418.5 425.333v-88.931c0-8.284-6.716-15-15-15s-15 6.716-15 15v88.931z" fill="#a1ccff"/><path d="m470.286 415.293h-133.572c-8.284 0-15 6.716-15 15s6.716 15 15 15h133.572c8.284 0 15-6.716 15-15s-6.716-15-15-15z" fill="#4a5fb3"/><path d="m470.286 415.293h-66.786v30h66.786c8.284 0 15-6.716 15-15s-6.716-15-15-15z" fill="#28326b"/><path d="m467 203.928h-422c-24.813 0-45 20.187-45 45v83.405c0 24.813 20.187 45 45 45h422c24.813 0 45-20.187 45-45v-83.405c0-24.813-20.187-45-45-45z" fill="#ff6a00"/><path d="m467 203.928h-211v173.405h211c24.813 0 45-20.187 45-45v-83.405c0-24.813-20.187-45-45-45z" fill="#cc4700"/><path d="m45 203.928c-.682 0-1.36.021-2.035.052v173.302c.675.03 1.352.052 2.035.052h27.965v-173.406z" fill="#f0f3fa"/><path d="m122.179 203.928h30v173.405h-30z" fill="#f0f3fa"/><path d="m231.393 173.4c0-8.284-6.716-15-15-15s-15 6.716-15 15v30.528h30z" fill="#ffa43d"/><path d="m201.393 203.928h30v173.405h-30z" fill="#f0f3fa"/><path d="m310.607 173.4c0-8.284-6.716-15-15-15s-15 6.716-15 15v30.528h30z" fill="#ffa43d"/><g fill="#a1ccff"><path d="m280.607 203.928h30v173.405h-30z"/><path d="m359.821 203.928h30v173.405h-30z"/><path d="m467 203.928h-27.965v173.405h27.965c.682 0 1.36-.021 2.035-.052v-173.301c-.675-.03-1.353-.052-2.035-.052z"/></g><path d="m390.042 291.435-120.939-217.03c-2.648-4.752-7.663-7.698-13.103-7.698s-10.455 2.946-13.103 7.698l-120.939 217.03c-2.589 4.646-2.524 10.315.17 14.9s7.615 7.401 12.933 7.401h241.877c5.318 0 10.239-2.816 12.933-7.401s2.759-10.255.171-14.9z" fill="#ffe159"/><path d="m390.042 291.435-120.939-217.03c-2.648-4.752-7.663-7.698-13.103-7.698v247.029h120.938c5.318 0 10.239-2.816 12.933-7.401s2.759-10.255.171-14.9z" fill="#ffb43b"/><path d="m256 154.046c-8.284 0-15 6.716-15 15v49.882c0 8.284 6.716 15 15 15s15-6.716 15-15v-49.882c0-8.284-6.716-15-15-15z" fill="#ff6a00"/><path d="m256 241.14c-8.284 0-15 6.716-15 15v4.258c0 8.284 6.716 15 15 15s15-6.716 15-15v-4.258c0-8.284-6.716-15-15-15z" fill="#ff6a00"/><path d="m256 154.046v79.882c8.284 0 15-6.716 15-15v-49.882c0-8.284-6.716-15-15-15z" fill="#cc4700"/><path d="m256 241.14v34.258c8.284 0 15-6.716 15-15v-4.258c0-8.284-6.716-15-15-15z" fill="#cc4700"/></svg>